<svg width="131" height="132" viewBox="0 0 131 132" fill="none" xmlns="http://www.w3.org/2000/svg">
<path fill-rule="evenodd" clip-rule="evenodd" d="M92.4173 42.8274L91.5308 45.7989C89.9282 51.1543 86.2912 55.6687 81.3995 58.3742C76.5078 61.0798 70.7508 61.7612 65.3627 60.2723L55.5433 57.5576L56.818 67.6653C57.5168 73.2115 56.0149 78.8107 52.6341 83.2626C49.2534 87.7145 44.263 90.6647 38.7328 91.4807L35.6648 91.9307L54.3432 104.71L102.379 63.1491L92.4173 42.8274ZM15.5971 80.4853C9.18464 81.4361 7.26512 89.7574 12.6171 93.417L50.8297 119.573C52.1274 120.46 53.682 120.893 55.2515 120.805C56.821 120.716 58.3171 120.111 59.5068 119.084L115.85 70.3349C117.04 69.3056 117.855 67.9115 118.169 66.37C118.484 64.8285 118.279 63.2264 117.587 61.8136L97.1962 20.2375C94.3441 14.415 85.8333 15.1182 83.9704 21.3273L77.8707 41.7157C77.3365 43.5008 76.1242 45.0056 74.4936 45.9075C72.8631 46.8093 70.9441 47.0365 69.148 46.5402L49.0334 40.9855C47.903 40.6733 46.7129 40.6451 45.569 40.9032C44.425 41.1613 43.3624 41.6978 42.4756 42.4651C41.5887 43.2325 40.905 44.2069 40.4851 45.3018C40.0652 46.3968 39.9221 47.5785 40.0685 48.7421L42.679 69.4417C42.9135 71.2906 42.4142 73.1578 41.2881 74.6428C40.162 76.1278 38.4988 77.1125 36.6552 77.3855L15.5971 80.4853Z" fill="#6A5BAC"/>
<path d="M26.8301 17.7878C24.614 17.3849 19.2128 14.7787 17.8165 18.0841C16.9184 20.2103 17.3825 23.6805 18.7179 25.542C19.9263 27.2264 21.3307 28.0276 23.2494 28.777C25.9211 29.8207 28.5535 30.2915 31.2752 31.0243C31.8588 31.1814 35.1229 32.3872 35.2758 32.2343" stroke="#6A5BAC" stroke-width="10" stroke-linecap="round"/>
<path d="M28.1638 17.3434C28.1638 12.5538 27.8419 6.54221 33.6955 5.21819C34.4374 5.05037 36.4297 4.78109 37.1033 5.31697C38.0039 6.03332 38.8565 7.71724 39.2518 8.76191C40.5392 12.1643 39.6864 15.6161 39.5111 19.1214C39.3294 22.7549 38.1652 26.3839 38.1652 30.0118" stroke="#6A5BAC" stroke-width="10" stroke-linecap="round"/>
</svg>
